<svg xmlns="http://www.w3.org/2000/svg" viewBox="0 0 492 492" width="492" height="492"><rect width="492" height="492" rx="18" fill="#ffffff"></rect><rect x="144" y="48" width="12" height="12" fill="#141218"></rect><rect x="156" y="48" width="12" height="12" fill="#141218"></rect><rect x="180" y="48" width="12" height="12" fill="#141218"></rect><rect x="204" y="48" width="12" height="12" fill="#141218"></rect><rect x="228" y="48" width="12" height="12" fill="#141218"></rect><rect x="288" y="48" width="12" height="12" fill="#141218"></rect><rect x="144" y="60" width="12" height="12" fill="#141218"></rect><rect x="324" y="60" width="12" height="12" fill="#141218"></rect><rect x="336" y="60" width="12" height="12" fill="#141218"></rect><rect x="144" y="72" width="12" height="12" fill="#141218"></rect><rect x="156" y="72" width="12" height="12" fill="#141218"></rect><rect x="168" y="72" width="12" height="12" fill="#141218"></rect><rect x="180" y="72" width="12" height="12" fill="#141218"></rect><rect x="192" y="72" width="12" height="12" fill="#141218"></rect><rect x="204" y="72" width="12" height="12" fill="#141218"></rect><rect x="312" y="72" width="12" height="12" fill="#141218"></rect><rect x="324" y="72" width="12" height="12" fill="#141218"></rect><rect x="336" y="72" width="12" height="12" fill="#141218"></rect><rect x="156" y="84" width="12" height="12" fill="#141218"></rect><rect x="192" y="84" width="12" height="12" fill="#141218"></rect><rect x="216" y="84" width="12" height="12" fill="#141218"></rect><rect x="228" y="84" width="12" height="12" fill="#141218"></rect><rect x="240" y="84" width="12" height="12" fill="#141218"></rect><rect x="276" y="84" width="12" height="12" fill="#141218"></rect><rect x="288" y="84" width="12" height="12" fill="#141218"></rect><rect x="312" y="84" width="12" height="12" fill="#141218"></rect><rect x="324" y="84" width="12" height="12" fill="#141218"></rect><rect x="336" y="84" width="12" height="12" fill="#141218"></rect><rect x="156" y="96" width="12" height="12" fill="#141218"></rect><rect x="168" y="96" width="12" height="12" fill="#141218"></rect><rect x="180" y="96" width="12" height="12" fill="#141218"></rect><rect x="192" y="96" width="12" height="12" fill="#141218"></rect><rect x="204" y="96" width="12" height="12" fill="#141218"></rect><rect x="240" y="96" width="12" height="12" fill="#141218"></rect><rect x="252" y="96" width="12" height="12" fill="#141218"></rect><rect x="276" y="96" width="12" height="12" fill="#141218"></rect><rect x="336" y="96" width="12" height="12" fill="#141218"></rect><rect x="144" y="108" width="12" height="12" fill="#141218"></rect><rect x="168" y="108" width="12" height="12" fill="#141218"></rect><rect x="192" y="108" width="12" height="12" fill="#141218"></rect><rect x="216" y="108" width="12" height="12" fill="#141218"></rect><rect x="264" y="108" width="12" height="12" fill="#141218"></rect><rect x="288" y="108" width="12" height="12" fill="#141218"></rect><rect x="144" y="120" width="12" height="12" fill="#141218"></rect><rect x="168" y="120" width="12" height="12" fill="#141218"></rect><rect x="192" y="120" width="12" height="12" fill="#141218"></rect><rect x="216" y="120" width="12" height="12" fill="#141218"></rect><rect x="240" y="120" width="12" height="12" fill="#141218"></rect><rect x="264" y="120" width="12" height="12" fill="#141218"></rect><rect x="288" y="120" width="12" height="12" fill="#141218"></rect><rect x="312" y="120" width="12" height="12" fill="#141218"></rect><rect x="336" y="120" width="12" height="12" fill="#141218"></rect><rect x="144" y="132" width="12" height="12" fill="#141218"></rect><rect x="192" y="132" width="12" height="12" fill="#141218"></rect><rect x="252" y="132" width="12" height="12" fill="#141218"></rect><rect x="264" y="132" width="12" height="12" fill="#141218"></rect><rect x="276" y="132" width="12" height="12" fill="#141218"></rect><rect x="288" y="132" width="12" height="12" fill="#141218"></rect><rect x="312" y="132" width="12" height="12" fill="#141218"></rect><rect x="120" y="144" width="12" height="12" fill="#141218"></rect><rect x="156" y="144" width="12" height="12" fill="#141218"></rect><rect x="168" y="144" width="12" height="12" fill="#141218"></rect><rect x="192" y="144" width="12" height="12" fill="#141218"></rect><rect x="216" y="144" width="12" height="12" fill="#141218"></rect><rect x="228" y="144" width="12" height="12" fill="#141218"></rect><rect x="276" y="144" width="12" height="12" fill="#141218"></rect><rect x="300" y="144" width="12" height="12" fill="#141218"></rect><rect x="324" y="144" width="12" height="12" fill="#141218"></rect><rect x="360" y="144" width="12" height="12" fill="#141218"></rect><rect x="372" y="144" width="12" height="12" fill="#141218"></rect><rect x="384" y="144" width="12" height="12" fill="#141218"></rect><rect x="396" y="144" width="12" height="12" fill="#141218"></rect><rect x="432" y="144" width="12" height="12" fill="#141218"></rect><rect x="72" y="156" width="12" height="12" fill="#141218"></rect><rect x="108" y="156" width="12" height="12" fill="#141218"></rect><rect x="180" y="156" width="12" height="12" fill="#141218"></rect><rect x="240" y="156" width="12" height="12" fill="#141218"></rect><rect x="264" y="156" width="12" height="12" fill="#141218"></rect><rect x="288" y="156" width="12" height="12" fill="#141218"></rect><rect x="300" y="156" width="12" height="12" fill="#141218"></rect><rect x="312" y="156" width="12" height="12" fill="#141218"></rect><rect x="324" y="156" width="12" height="12" fill="#141218"></rect><rect x="348" y="156" width="12" height="12" fill="#141218"></rect><rect x="360" y="156" width="12" height="12" fill="#141218"></rect><rect x="372" y="156" width="12" height="12" fill="#141218"></rect><rect x="384" y="156" width="12" height="12" fill="#141218"></rect><rect x="396" y="156" width="12" height="12" fill="#141218"></rect><rect x="420" y="156" width="12" height="12" fill="#141218"></rect><rect x="48" y="168" width="12" height="12" fill="#141218"></rect><rect x="72" y="168" width="12" height="12" fill="#141218"></rect><rect x="84" y="168" width="12" height="12" fill="#141218"></rect><rect x="120" y="168" width="12" height="12" fill="#141218"></rect><rect x="180" y="168" width="12" height="12" fill="#141218"></rect><rect x="216" y="168" width="12" height="12" fill="#141218"></rect><rect x="240" y="168" width="12" height="12" fill="#141218"></rect><rect x="252" y="168" width="12" height="12" fill="#141218"></rect><rect x="264" y="168" width="12" height="12" fill="#141218"></rect><rect x="276" y="168" width="12" height="12" fill="#141218"></rect><rect x="300" y="168" width="12" height="12" fill="#141218"></rect><rect x="312" y="168" width="12" height="12" fill="#141218"></rect><rect x="324" y="168" width="12" height="12" fill="#141218"></rect><rect x="336" y="168" width="12" height="12" fill="#141218"></rect><rect x="360" y="168" width="12" height="12" fill="#141218"></rect><rect x="384" y="168" width="12" height="12" fill="#141218"></rect><rect x="396" y="168" width="12" height="12" fill="#141218"></rect><rect x="408" y="168" width="12" height="12" fill="#141218"></rect><rect x="72" y="180" width="12" height="12" fill="#141218"></rect><rect x="84" y="180" width="12" height="12" fill="#141218"></rect><rect x="108" y="180" width="12" height="12" fill="#141218"></rect><rect x="132" y="180" width="12" height="12" fill="#141218"></rect><rect x="144" y="180" width="12" height="12" fill="#141218"></rect><rect x="168" y="180" width="12" height="12" fill="#141218"></rect><rect x="204" y="180" width="12" height="12" fill="#141218"></rect><rect x="216" y="180" width="12" height="12" fill="#141218"></rect><rect x="240" y="180" width="12" height="12" fill="#141218"></rect><rect x="252" y="180" width="12" height="12" fill="#141218"></rect><rect x="264" y="180" width="12" height="12" fill="#141218"></rect><rect x="312" y="180" width="12" height="12" fill="#141218"></rect><rect x="324" y="180" width="12" height="12" fill="#141218"></rect><rect x="348" y="180" width="12" height="12" fill="#141218"></rect><rect x="360" y="180" width="12" height="12" fill="#141218"></rect><rect x="384" y="180" width="12" height="12" fill="#141218"></rect><rect x="396" y="180" width="12" height="12" fill="#141218"></rect><rect x="432" y="180" width="12" height="12" fill="#141218"></rect><rect x="108" y="192" width="12" height="12" fill="#141218"></rect><rect x="120" y="192" width="12" height="12" fill="#141218"></rect><rect x="156" y="192" width="12" height="12" fill="#141218"></rect><rect x="168" y="192" width="12" height="12" fill="#141218"></rect><rect x="180" y="192" width="12" height="12" fill="#141218"></rect><rect x="216" y="192" width="12" height="12" fill="#141218"></rect><rect x="240" y="192" width="12" height="12" fill="#141218"></rect><rect x="264" y="192" width="12" height="12" fill="#141218"></rect><rect x="276" y="192" width="12" height="12" fill="#141218"></rect><rect x="288" y="192" width="12" height="12" fill="#141218"></rect><rect x="312" y="192" width="12" height="12" fill="#141218"></rect><rect x="324" y="192" width="12" height="12" fill="#141218"></rect><rect x="348" y="192" width="12" height="12" fill="#141218"></rect><rect x="420" y="192" width="12" height="12" fill="#141218"></rect><rect x="96" y="204" width="12" height="12" fill="#141218"></rect><rect x="132" y="204" width="12" height="12" fill="#141218"></rect><rect x="204" y="204" width="12" height="12" fill="#141218"></rect><rect x="216" y="204" width="12" height="12" fill="#141218"></rect><rect x="228" y="204" width="12" height="12" fill="#141218"></rect><rect x="252" y="204" width="12" height="12" fill="#141218"></rect><rect x="264" y="204" width="12" height="12" fill="#141218"></rect><rect x="300" y="204" width="12" height="12" fill="#141218"></rect><rect x="312" y="204" width="12" height="12" fill="#141218"></rect><rect x="324" y="204" width="12" height="12" fill="#141218"></rect><rect x="336" y="204" width="12" height="12" fill="#141218"></rect><rect x="360" y="204" width="12" height="12" fill="#141218"></rect><rect x="396" y="204" width="12" height="12" fill="#141218"></rect><rect x="408" y="204" width="12" height="12" fill="#141218"></rect><rect x="420" y="204" width="12" height="12" fill="#141218"></rect><rect x="60" y="216" width="12" height="12" fill="#141218"></rect><rect x="72" y="216" width="12" height="12" fill="#141218"></rect><rect x="96" y="216" width="12" height="12" fill="#141218"></rect><rect x="108" y="216" width="12" height="12" fill="#141218"></rect><rect x="120" y="216" width="12" height="12" fill="#141218"></rect><rect x="156" y="216" width="12" height="12" fill="#141218"></rect><rect x="168" y="216" width="12" height="12" fill="#141218"></rect><rect x="192" y="216" width="12" height="12" fill="#141218"></rect><rect x="204" y="216" width="12" height="12" fill="#141218"></rect><rect x="240" y="216" width="12" height="12" fill="#141218"></rect><rect x="264" y="216" width="12" height="12" fill="#141218"></rect><rect x="276" y="216" width="12" height="12" fill="#141218"></rect><rect x="300" y="216" width="12" height="12" fill="#141218"></rect><rect x="324" y="216" width="12" height="12" fill="#141218"></rect><rect x="348" y="216" width="12" height="12" fill="#141218"></rect><rect x="372" y="216" width="12" height="12" fill="#141218"></rect><rect x="384" y="216" width="12" height="12" fill="#141218"></rect><rect x="432" y="216" width="12" height="12" fill="#141218"></rect><rect x="60" y="228" width="12" height="12" fill="#141218"></rect><rect x="84" y="228" width="12" height="12" fill="#141218"></rect><rect x="144" y="228" width="12" height="12" fill="#141218"></rect><rect x="180" y="228" width="12" height="12" fill="#141218"></rect><rect x="192" y="228" width="12" height="12" fill="#141218"></rect><rect x="240" y="228" width="12" height="12" fill="#141218"></rect><rect x="264" y="228" width="12" height="12" fill="#141218"></rect><rect x="288" y="228" width="12" height="12" fill="#141218"></rect><rect x="348" y="228" width="12" height="12" fill="#141218"></rect><rect x="360" y="228" width="12" height="12" fill="#141218"></rect><rect x="372" y="228" width="12" height="12" fill="#141218"></rect><rect x="396" y="228" width="12" height="12" fill="#141218"></rect><rect x="432" y="228" width="12" height="12" fill="#141218"></rect><rect x="72" y="240" width="12" height="12" fill="#141218"></rect><rect x="84" y="240" width="12" height="12" fill="#141218"></rect><rect x="96" y="240" width="12" height="12" fill="#141218"></rect><rect x="108" y="240" width="12" height="12" fill="#141218"></rect><rect x="120" y="240" width="12" height="12" fill="#141218"></rect><rect x="156" y="240" width="12" height="12" fill="#141218"></rect><rect x="168" y="240" width="12" height="12" fill="#141218"></rect><rect x="180" y="240" width="12" height="12" fill="#141218"></rect><rect x="216" y="240" width="12" height="12" fill="#141218"></rect><rect x="228" y="240" width="12" height="12" fill="#141218"></rect><rect x="240" y="240" width="12" height="12" fill="#141218"></rect><rect x="324" y="240" width="12" height="12" fill="#141218"></rect><rect x="348" y="240" width="12" height="12" fill="#141218"></rect><rect x="372" y="240" width="12" height="12" fill="#141218"></rect><rect x="408" y="240" width="12" height="12" fill="#141218"></rect><rect x="72" y="252" width="12" height="12" fill="#141218"></rect><rect x="84" y="252" width="12" height="12" fill="#141218"></rect><rect x="108" y="252" width="12" height="12" fill="#141218"></rect><rect x="144" y="252" width="12" height="12" fill="#141218"></rect><rect x="168" y="252" width="12" height="12" fill="#141218"></rect><rect x="180" y="252" width="12" height="12" fill="#141218"></rect><rect x="216" y="252" width="12" height="12" fill="#141218"></rect><rect x="252" y="252" width="12" height="12" fill="#141218"></rect><rect x="288" y="252" width="12" height="12" fill="#141218"></rect><rect x="312" y="252" width="12" height="12" fill="#141218"></rect><rect x="324" y="252" width="12" height="12" fill="#141218"></rect><rect x="348" y="252" width="12" height="12" fill="#141218"></rect><rect x="384" y="252" width="12" height="12" fill="#141218"></rect><rect x="396" y="252" width="12" height="12" fill="#141218"></rect><rect x="408" y="252" width="12" height="12" fill="#141218"></rect><rect x="72" y="264" width="12" height="12" fill="#141218"></rect><rect x="84" y="264" width="12" height="12" fill="#141218"></rect><rect x="120" y="264" width="12" height="12" fill="#141218"></rect><rect x="156" y="264" width="12" height="12" fill="#141218"></rect><rect x="168" y="264" width="12" height="12" fill="#141218"></rect><rect x="180" y="264" width="12" height="12" fill="#141218"></rect><rect x="228" y="264" width="12" height="12" fill="#141218"></rect><rect x="240" y="264" width="12" height="12" fill="#141218"></rect><rect x="264" y="264" width="12" height="12" fill="#141218"></rect><rect x="288" y="264" width="12" height="12" fill="#141218"></rect><rect x="312" y="264" width="12" height="12" fill="#141218"></rect><rect x="336" y="264" width="12" height="12" fill="#141218"></rect><rect x="384" y="264" width="12" height="12" fill="#141218"></rect><rect x="408" y="264" width="12" height="12" fill="#141218"></rect><rect x="108" y="276" width="12" height="12" fill="#141218"></rect><rect x="144" y="276" width="12" height="12" fill="#141218"></rect><rect x="156" y="276" width="12" height="12" fill="#141218"></rect><rect x="180" y="276" width="12" height="12" fill="#141218"></rect><rect x="192" y="276" width="12" height="12" fill="#141218"></rect><rect x="204" y="276" width="12" height="12" fill="#141218"></rect><rect x="240" y="276" width="12" height="12" fill="#141218"></rect><rect x="336" y="276" width="12" height="12" fill="#141218"></rect><rect x="348" y="276" width="12" height="12" fill="#141218"></rect><rect x="360" y="276" width="12" height="12" fill="#141218"></rect><rect x="408" y="276" width="12" height="12" fill="#141218"></rect><rect x="432" y="276" width="12" height="12" fill="#141218"></rect><rect x="84" y="288" width="12" height="12" fill="#141218"></rect><rect x="96" y="288" width="12" height="12" fill="#141218"></rect><rect x="108" y="288" width="12" height="12" fill="#141218"></rect><rect x="120" y="288" width="12" height="12" fill="#141218"></rect><rect x="144" y="288" width="12" height="12" fill="#141218"></rect><rect x="156" y="288" width="12" height="12" fill="#141218"></rect><rect x="168" y="288" width="12" height="12" fill="#141218"></rect><rect x="180" y="288" width="12" height="12" fill="#141218"></rect><rect x="192" y="288" width="12" height="12" fill="#141218"></rect><rect x="216" y="288" width="12" height="12" fill="#141218"></rect><rect x="240" y="288" width="12" height="12" fill="#141218"></rect><rect x="276" y="288" width="12" height="12" fill="#141218"></rect><rect x="288" y="288" width="12" height="12" fill="#141218"></rect><rect x="372" y="288" width="12" height="12" fill="#141218"></rect><rect x="384" y="288" width="12" height="12" fill="#141218"></rect><rect x="432" y="288" width="12" height="12" fill="#141218"></rect><rect x="72" y="300" width="12" height="12" fill="#141218"></rect><rect x="96" y="300" width="12" height="12" fill="#141218"></rect><rect x="108" y="300" width="12" height="12" fill="#141218"></rect><rect x="132" y="300" width="12" height="12" fill="#141218"></rect><rect x="144" y="300" width="12" height="12" fill="#141218"></rect><rect x="156" y="300" width="12" height="12" fill="#141218"></rect><rect x="180" y="300" width="12" height="12" fill="#141218"></rect><rect x="216" y="300" width="12" height="12" fill="#141218"></rect><rect x="276" y="300" width="12" height="12" fill="#141218"></rect><rect x="288" y="300" width="12" height="12" fill="#141218"></rect><rect x="300" y="300" width="12" height="12" fill="#141218"></rect><rect x="312" y="300" width="12" height="12" fill="#141218"></rect><rect x="324" y="300" width="12" height="12" fill="#141218"></rect><rect x="336" y="300" width="12" height="12" fill="#141218"></rect><rect x="372" y="300" width="12" height="12" fill="#141218"></rect><rect x="408" y="300" width="12" height="12" fill="#141218"></rect><rect x="48" y="312" width="12" height="12" fill="#141218"></rect><rect x="60" y="312" width="12" height="12" fill="#141218"></rect><rect x="72" y="312" width="12" height="12" fill="#141218"></rect><rect x="84" y="312" width="12" height="12" fill="#141218"></rect><rect x="108" y="312" width="12" height="12" fill="#141218"></rect><rect x="120" y="312" width="12" height="12" fill="#141218"></rect><rect x="144" y="312" width="12" height="12" fill="#141218"></rect><rect x="180" y="312" width="12" height="12" fill="#141218"></rect><rect x="228" y="312" width="12" height="12" fill="#141218"></rect><rect x="252" y="312" width="12" height="12" fill="#141218"></rect><rect x="264" y="312" width="12" height="12" fill="#141218"></rect><rect x="276" y="312" width="12" height="12" fill="#141218"></rect><rect x="312" y="312" width="12" height="12" fill="#141218"></rect><rect x="336" y="312" width="12" height="12" fill="#141218"></rect><rect x="396" y="312" width="12" height="12" fill="#141218"></rect><rect x="408" y="312" width="12" height="12" fill="#141218"></rect><rect x="420" y="312" width="12" height="12" fill="#141218"></rect><rect x="432" y="312" width="12" height="12" fill="#141218"></rect><rect x="84" y="324" width="12" height="12" fill="#141218"></rect><rect x="144" y="324" width="12" height="12" fill="#141218"></rect><rect x="252" y="324" width="12" height="12" fill="#141218"></rect><rect x="300" y="324" width="12" height="12" fill="#141218"></rect><rect x="312" y="324" width="12" height="12" fill="#141218"></rect><rect x="372" y="324" width="12" height="12" fill="#141218"></rect><rect x="396" y="324" width="12" height="12" fill="#141218"></rect><rect x="420" y="324" width="12" height="12" fill="#141218"></rect><rect x="432" y="324" width="12" height="12" fill="#141218"></rect><rect x="60" y="336" width="12" height="12" fill="#141218"></rect><rect x="72" y="336" width="12" height="12" fill="#141218"></rect><rect x="84" y="336" width="12" height="12" fill="#141218"></rect><rect x="96" y="336" width="12" height="12" fill="#141218"></rect><rect x="120" y="336" width="12" height="12" fill="#141218"></rect><rect x="132" y="336" width="12" height="12" fill="#141218"></rect><rect x="156" y="336" width="12" height="12" fill="#141218"></rect><rect x="180" y="336" width="12" height="12" fill="#141218"></rect><rect x="192" y="336" width="12" height="12" fill="#141218"></rect><rect x="204" y="336" width="12" height="12" fill="#141218"></rect><rect x="228" y="336" width="12" height="12" fill="#141218"></rect><rect x="240" y="336" width="12" height="12" fill="#141218"></rect><rect x="252" y="336" width="12" height="12" fill="#141218"></rect><rect x="264" y="336" width="12" height="12" fill="#141218"></rect><rect x="276" y="336" width="12" height="12" fill="#141218"></rect><rect x="372" y="336" width="12" height="12" fill="#141218"></rect><rect x="384" y="336" width="12" height="12" fill="#141218"></rect><rect x="396" y="336" width="12" height="12" fill="#141218"></rect><rect x="432" y="336" width="12" height="12" fill="#141218"></rect><rect x="168" y="348" width="12" height="12" fill="#141218"></rect><rect x="204" y="348" width="12" height="12" fill="#141218"></rect><rect x="240" y="348" width="12" height="12" fill="#141218"></rect><rect x="252" y="348" width="12" height="12" fill="#141218"></rect><rect x="264" y="348" width="12" height="12" fill="#141218"></rect><rect x="276" y="348" width="12" height="12" fill="#141218"></rect><rect x="288" y="348" width="12" height="12" fill="#141218"></rect><rect x="300" y="348" width="12" height="12" fill="#141218"></rect><rect x="312" y="348" width="12" height="12" fill="#141218"></rect><rect x="336" y="348" width="12" height="12" fill="#141218"></rect><rect x="348" y="348" width="12" height="12" fill="#141218"></rect><rect x="360" y="348" width="12" height="12" fill="#141218"></rect><rect x="408" y="348" width="12" height="12" fill="#141218"></rect><rect x="432" y="348" width="12" height="12" fill="#141218"></rect><rect x="156" y="360" width="12" height="12" fill="#141218"></rect><rect x="192" y="360" width="12" height="12" fill="#141218"></rect><rect x="204" y="360" width="12" height="12" fill="#141218"></rect><rect x="216" y="360" width="12" height="12" fill="#141218"></rect><rect x="228" y="360" width="12" height="12" fill="#141218"></rect><rect x="240" y="360" width="12" height="12" fill="#141218"></rect><rect x="252" y="360" width="12" height="12" fill="#141218"></rect><rect x="264" y="360" width="12" height="12" fill="#141218"></rect><rect x="276" y="360" width="12" height="12" fill="#141218"></rect><rect x="288" y="360" width="12" height="12" fill="#141218"></rect><rect x="312" y="360" width="12" height="12" fill="#141218"></rect><rect x="324" y="360" width="12" height="12" fill="#141218"></rect><rect x="336" y="360" width="12" height="12" fill="#141218"></rect><rect x="348" y="360" width="12" height="12" fill="#141218"></rect><rect x="360" y="360" width="12" height="12" fill="#141218"></rect><rect x="156" y="372" width="12" height="12" fill="#141218"></rect><rect x="168" y="372" width="12" height="12" fill="#141218"></rect><rect x="204" y="372" width="12" height="12" fill="#141218"></rect><rect x="216" y="372" width="12" height="12" fill="#141218"></rect><rect x="252" y="372" width="12" height="12" fill="#141218"></rect><rect x="300" y="372" width="12" height="12" fill="#141218"></rect><rect x="312" y="372" width="12" height="12" fill="#141218"></rect><rect x="336" y="372" width="12" height="12" fill="#141218"></rect><rect x="408" y="372" width="12" height="12" fill="#141218"></rect><rect x="420" y="372" width="12" height="12" fill="#141218"></rect><rect x="432" y="372" width="12" height="12" fill="#141218"></rect><rect x="144" y="384" width="12" height="12" fill="#141218"></rect><rect x="156" y="384" width="12" height="12" fill="#141218"></rect><rect x="168" y="384" width="12" height="12" fill="#141218"></rect><rect x="204" y="384" width="12" height="12" fill="#141218"></rect><rect x="216" y="384" width="12" height="12" fill="#141218"></rect><rect x="228" y="384" width="12" height="12" fill="#141218"></rect><rect x="240" y="384" width="12" height="12" fill="#141218"></rect><rect x="288" y="384" width="12" height="12" fill="#141218"></rect><rect x="300" y="384" width="12" height="12" fill="#141218"></rect><rect x="348" y="384" width="12" height="12" fill="#141218"></rect><rect x="372" y="384" width="12" height="12" fill="#141218"></rect><rect x="420" y="384" width="12" height="12" fill="#141218"></rect><rect x="432" y="384" width="12" height="12" fill="#141218"></rect><rect x="144" y="396" width="12" height="12" fill="#141218"></rect><rect x="156" y="396" width="12" height="12" fill="#141218"></rect><rect x="216" y="396" width="12" height="12" fill="#141218"></rect><rect x="228" y="396" width="12" height="12" fill="#141218"></rect><rect x="252" y="396" width="12" height="12" fill="#141218"></rect><rect x="288" y="396" width="12" height="12" fill="#141218"></rect><rect x="312" y="396" width="12" height="12" fill="#141218"></rect><rect x="336" y="396" width="12" height="12" fill="#141218"></rect><rect x="348" y="396" width="12" height="12" fill="#141218"></rect><rect x="360" y="396" width="12" height="12" fill="#141218"></rect><rect x="372" y="396" width="12" height="12" fill="#141218"></rect><rect x="144" y="408" width="12" height="12" fill="#141218"></rect><rect x="156" y="408" width="12" height="12" fill="#141218"></rect><rect x="168" y="408" width="12" height="12" fill="#141218"></rect><rect x="204" y="408" width="12" height="12" fill="#141218"></rect><rect x="216" y="408" width="12" height="12" fill="#141218"></rect><rect x="228" y="408" width="12" height="12" fill="#141218"></rect><rect x="240" y="408" width="12" height="12" fill="#141218"></rect><rect x="288" y="408" width="12" height="12" fill="#141218"></rect><rect x="312" y="408" width="12" height="12" fill="#141218"></rect><rect x="324" y="408" width="12" height="12" fill="#141218"></rect><rect x="336" y="408" width="12" height="12" fill="#141218"></rect><rect x="372" y="408" width="12" height="12" fill="#141218"></rect><rect x="384" y="408" width="12" height="12" fill="#141218"></rect><rect x="396" y="408" width="12" height="12" fill="#141218"></rect><rect x="420" y="408" width="12" height="12" fill="#141218"></rect><rect x="168" y="420" width="12" height="12" fill="#141218"></rect><rect x="180" y="420" width="12" height="12" fill="#141218"></rect><rect x="192" y="420" width="12" height="12" fill="#141218"></rect><rect x="216" y="420" width="12" height="12" fill="#141218"></rect><rect x="228" y="420" width="12" height="12" fill="#141218"></rect><rect x="252" y="420" width="12" height="12" fill="#141218"></rect><rect x="264" y="420" width="12" height="12" fill="#141218"></rect><rect x="288" y="420" width="12" height="12" fill="#141218"></rect><rect x="312" y="420" width="12" height="12" fill="#141218"></rect><rect x="360" y="420" width="12" height="12" fill="#141218"></rect><rect x="396" y="420" width="12" height="12" fill="#141218"></rect><rect x="408" y="420" width="12" height="12" fill="#141218"></rect><rect x="432" y="420" width="12" height="12" fill="#141218"></rect><rect x="144" y="432" width="12" height="12" fill="#141218"></rect><rect x="192" y="432" width="12" height="12" fill="#141218"></rect><rect x="264" y="432" width="12" height="12" fill="#141218"></rect><rect x="276" y="432" width="12" height="12" fill="#141218"></rect><rect x="288" y="432" width="12" height="12" fill="#141218"></rect><rect x="300" y="432" width="12" height="12" fill="#141218"></rect><rect x="312" y="432" width="12" height="12" fill="#141218"></rect><rect x="360" y="432" width="12" height="12" fill="#141218"></rect><rect x="384" y="432" width="12" height="12" fill="#141218"></rect><rect x="408" y="432" width="12" height="12" fill="#141218"></rect><rect x="432" y="432" width="12" height="12" fill="#141218"></rect><rect x="48" y="48" width="84" height="84" fill="#141218"></rect><rect x="60" y="60" width="60" height="60" fill="#ffffff"></rect><rect x="72" y="72" width="36" height="36" fill="#141218"></rect><rect x="360" y="48" width="84" height="84" fill="#141218"></rect><rect x="372" y="60" width="60" height="60" fill="#ffffff"></rect><rect x="384" y="72" width="36" height="36" fill="#141218"></rect><rect x="48" y="360" width="84" height="84" fill="#141218"></rect><rect x="60" y="372" width="60" height="60" fill="#ffffff"></rect><rect x="72" y="384" width="36" height="36" fill="#141218"></rect></svg>